<?xml version="1.0" encoding="UTF-8"?>
<svg version="1.1" xmlns="http://www.w3.org/2000/svg" width="400" height="400">
<path d="M0 0 C0.76441406 0.20367187 1.52882812 0.40734375 2.31640625 0.6171875 C43.83392125 12.15378687 77.67873988 40.88584878 98.75 78.0625 C99.84253036 80.03660466 100.92974416 82.01373107 102 84 C102.82242187 83.66226563 103.64484375 83.32453125 104.4921875 82.9765625 C105.60851562 82.53054687 106.72484375 82.08453125 107.875 81.625 C108.96554687 81.18414062 110.05609375 80.74328125 111.1796875 80.2890625 C129.5905409 73.63155536 149.8765057 75.91784117 167.4375 83.75 C168.96427469 84.48782998 170.48773758 85.2328648 172 86 C171.67 87.98 171.34 89.96 171 92 C163.83870968 91.17369727 163.83870968 91.17369727 160.359375 90.453125 C144.15249517 87.17632416 128.44575222 89.71665633 114.1875 98.1875 C100.29128651 107.79526778 91.43247783 120.67928077 87.625 137.08203125 C84.73925372 155.17205325 88.43718668 171.39102214 98.77734375 186.6171875 C108.4271699 199.60202514 123.09351638 207.56879575 139 210 C153.82548642 211.09540537 166.12576709 208.50126134 179.1015625 201.328125 C182 200 182 200 185 201 C185.33 202.65 185.66 204.3 186 206 C167.12109603 221.0629553 148.17875357 227.15944303 124 225 C116.25131468 223.82340659 109.14235883 221.14732731 102 218 C101.39414062 219.06476563 100.78828125 220.12953125 100.1640625 221.2265625 C91.5360288 236.24122058 82.23560081 249.69734399 70 262 C69.52336914 262.48065918 69.04673828 262.96131836 68.55566406 263.45654297 C43.47783632 288.38806904 6.58649773 305.85618258 -29.0390625 306.23828125 C-29.79385391 306.2480751 -30.54864532 306.25786896 -31.3263092 306.26795959 C-47.56565651 306.43530684 -63.25401574 306.49147748 -79 302 C-80.13477783 301.68651611 -80.13477783 301.68651611 -81.29248047 301.36669922 C-113.16865124 292.32213217 -147.22395705 271.80944891 -165 243 C-165 242.01 -165 241.02 -165 240 C-162.525 239.01 -162.525 239.01 -160 238 C-156.57668814 241.33215859 -153.23899145 244.64313055 -150.25 248.375 C-133.99254605 267.53404678 -107.07499543 280.47459121 -83 286 C-82.33597168 286.16081055 -81.67194336 286.32162109 -80.98779297 286.48730469 C-46.89566816 294.46928901 -8.82556866 288.21138706 21.09912109 270.18847656 C30.49253565 264.31548118 38.99179663 257.66655647 47 250 C47.73476562 249.32839844 48.46953125 248.65679687 49.2265625 247.96484375 C61.33777867 236.51696274 77.03295578 216.95878103 79 200 C77.54731627 197.34632595 77.54731627 197.34632595 75.375 194.8125 C63.72444209 179.60994273 59.75067555 161.96376006 61 143 C62.8254587 129.27312555 67.90909828 113.82014434 78.0625 103.9375 C80.2713754 101.3072807 80.2713754 101.3072807 79.69335938 99.06958008 C77.64669203 93.41394751 75.25284273 88.06494096 72.4375 82.75 C72.00058838 81.92443604 71.56367676 81.09887207 71.11352539 80.24829102 C64.95329567 68.90839456 56.81808413 59.38699279 48 50 C47.47535156 49.41089844 46.95070312 48.82179687 46.41015625 48.21484375 C25.06290422 25.23803049 -9.73807339 11.32360411 -40.66381836 9.87524414 C-73.01663085 9.00640345 -106.07017586 15.24419189 -132.16796875 35.69921875 C-134 37 -134 37 -136 37 C-139 33.53846154 -139 33.53846154 -139 31 C-101.6366906 -0.74228055 -47.33852064 -12.71781152 0 0 Z " fill="#E21E25" transform="translate(190,49)"/>
</svg>
